<svg width="20" height="20" viewBox="0 0 20 20" fill="none" xmlns="http://www.w3.org/2000/svg">
    <path d="M2.4987 3.33317V13.3332H17.4987V3.33317H2.4987ZM2.4987 1.6665H17.4987C17.9407 1.6665 18.3646 1.8421 18.6772 2.15466C18.9898 2.46722 19.1654 2.89114 19.1654 3.33317V13.3332C19.1654 13.7748 18.9904 14.1998 18.6737 14.5082C18.3654 14.8248 17.9404 14.9998 17.4987 14.9998H11.6654V16.6665H13.332V18.3332H6.66536V16.6665H8.33203V14.9998H2.4987C2.05703 14.9998 1.63203 14.8248 1.3237 14.5082C1.00703 14.1998 0.832031 13.7748 0.832031 13.3332V3.33317C0.832031 2.40817 1.5737 1.6665 2.4987 1.6665ZM9.03203 7.4415C9.29037 7.1915 9.64036 7.0415 9.9987 7.0415C10.357 7.04984 10.707 7.1915 10.9654 7.44984C11.2154 7.69984 11.3654 8.04984 11.3654 8.40817C11.3654 8.77484 11.2154 9.1165 10.9654 9.37484C10.707 9.63317 10.357 9.77484 9.9987 9.77484C9.64036 9.77484 9.29037 9.62484 9.03203 9.37484C8.78203 9.1165 8.63203 8.77484 8.63203 8.40817C8.63203 8.04984 8.78203 7.69984 9.03203 7.4415ZM8.39036 9.99984C8.59871 10.2161 8.84852 10.3881 9.12487 10.5056C9.40121 10.6231 9.69841 10.6836 9.9987 10.6836C10.299 10.6836 10.5962 10.6231 10.8725 10.5056C11.1489 10.3881 11.3987 10.2161 11.607 9.99984C12.032 9.58317 12.2737 9.00817 12.2737 8.40817C12.2737 7.80817 12.032 7.22484 11.607 6.79984C11.182 6.37484 10.5987 6.13317 9.9987 6.13317C9.3987 6.13317 8.81536 6.37484 8.39036 6.79984C7.96536 7.22484 7.7237 7.80817 7.7237 8.40817C7.7237 9.00817 7.96536 9.58317 8.39036 9.99984ZM4.9987 8.40817C5.39359 7.40374 6.08172 6.54145 6.97351 5.93355C7.86529 5.32565 8.91943 5.0003 9.9987 4.99984C12.2737 4.99984 14.2154 6.4165 14.9987 8.40817C14.6067 9.41459 13.9193 10.2788 13.0269 10.8872C12.1344 11.4955 11.0788 11.8195 9.9987 11.8165C7.7237 11.8165 5.78203 10.4165 4.9987 8.40817Z" fill="currentColor" />
</svg>